<svg width="500" height="500" viewBox="0 0 500 500" fill="none" xmlns="http://www.w3.org/2000/svg">
<path d="M80.4718 140.931L27.1976 100.975C27.1976 100.975 25.7178 93.5762 80.4718 55.1004C135.226 16.6245 154.464 55.1004 154.464 55.1004L142.625 398.423L80.4718 426.54L101.247 375.404L16.8387 352.548C16.8387 352.548 31.6371 315.552 48.6553 305.933C65.6734 296.314 80.4718 259.318 80.4718 259.318C80.4718 259.318 59.7541 250.439 42.7359 248.959C25.7178 247.479 5 238.6 5 238.6C5 238.6 6.47984 210.484 16.8387 200.125C27.1976 189.766 80.4718 140.931 80.4718 140.931Z" fill="#32B536" stroke="black" stroke-width="2"/>
<path d="M256.63 56.1613C280.945 77.7759 274.388 137.552 274.388 137.552C274.388 137.552 330.77 121.683 367.618 122.754C398.775 123.66 419.384 121.412 446.05 137.552C464.229 148.556 475.583 156.752 484.526 176.028C495.47 199.619 501.22 222.681 484.526 242.621C469.23 260.891 425.332 257.42 425.332 257.42L349.86 242.621C349.86 242.621 298.272 225.351 274.388 242.621C256.372 255.649 251.085 270.954 247.751 292.936C243.716 319.546 248.315 338.822 265.509 359.528C282.021 379.412 324.703 389.125 324.703 389.125H400.175C400.175 389.125 445.31 384.686 475.647 378.766C505.983 372.847 493.405 418.722 484.526 418.722C475.647 418.722 461.588 427.601 425.332 427.601H349.86C320.387 427.601 301.351 415.696 274.388 427.601C262.952 432.651 256.41 436.341 247.751 445.359C242.307 451.029 235.913 461.637 235.913 461.637H201.876C201.876 461.637 216.762 426.422 201.876 418.722C194.177 414.739 187.853 421.607 179.679 418.722C166.055 413.914 148.602 398.004 148.602 398.004L120.485 366.188L103.391 317.353L96.8077 266.299L96.8078 219.684C96.8078 186.387 104.824 187.82 110.126 162.71C113.457 146.938 115.561 138.103 120.485 122.754C125.403 107.425 127.168 98.1817 135.284 84.2783C142.336 72.1962 146.595 64.9486 157.481 56.1613C175.401 41.6958 190.771 36.4145 213.715 38.4032C231.785 39.9695 243.075 44.1108 256.63 56.1613Z" fill="#0EA2BC" stroke="black" stroke-width="2"/>
<path d="M364.659 302.891L346.901 255.536L472.687 264.415L462.328 302.891L438.651 277.734L417.933 302.891L385.376 264.415L364.659 302.891Z" fill="#F3B33F"/>
<path d="M373.538 336.928L346.901 378.191L472.687 366.901L451.969 328.049L431.251 357.645L417.933 336.928L395.735 367.737L373.538 336.928Z" fill="#F3B33F"/>
<path d="M364.659 302.891L346.901 255.536L472.687 264.415L462.328 302.891L438.651 277.734L417.933 302.891L385.376 264.415L364.659 302.891Z" stroke="black" stroke-width="2"/>
<path d="M373.538 336.928L346.901 378.191L472.687 366.901L451.969 328.049L431.251 357.645L417.933 336.928L395.735 367.737L373.538 336.928Z" stroke="black" stroke-width="2"/>
</svg>
