<svg width="100" height="100" viewBox="0 0 100 100" fill="none" xmlns="http://www.w3.org/2000/svg">
<g clip-path="url(#clip0_5_46)">
<rect width="100" height="100" fill="#FAFAFA"/>
<path d="M49.344 67.744C50.496 67.744 51.504 67.92 52.368 68.272C53.232 68.592 53.984 69.104 54.624 69.808C55.296 70.48 55.856 71.312 56.304 72.304H57.84L56.736 76.912C55.936 75.792 55.024 74.912 54 74.272C52.976 73.6 51.84 73.264 50.592 73.264C49.792 73.264 49.088 73.408 48.48 73.696C47.872 73.984 47.344 74.448 46.896 75.088C46.48 75.696 46.128 76.528 45.84 77.584L44.16 83.968C43.936 84.96 43.856 85.824 43.92 86.56C44.016 87.264 44.272 87.824 44.688 88.24C44.912 88.496 45.2 88.688 45.552 88.816C45.936 88.944 46.352 89.008 46.8 89.008C47.696 89.008 48.576 88.8 49.44 88.384C50.336 87.968 51.248 87.312 52.176 86.416C53.136 85.488 54.16 84.272 55.248 82.768L53.952 89.824H52.272C51.568 90.848 50.832 91.712 50.064 92.416C49.296 93.12 48.448 93.648 47.52 94C46.624 94.32 45.6 94.48 44.448 94.48C43.168 94.48 42.048 94.224 41.088 93.712C40.128 93.2 39.36 92.48 38.784 91.552C38.24 90.624 37.904 89.52 37.776 88.24C37.68 86.96 37.824 85.552 38.208 84.016L39.936 77.152C40.352 75.392 40.88 73.92 41.52 72.736C42.192 71.52 42.944 70.544 43.776 69.808C44.64 69.072 45.536 68.544 46.464 68.224C47.424 67.904 48.384 67.744 49.344 67.744ZM60.72 58C61.648 58 62.56 58 63.456 58C64.352 58 65.248 58 66.144 58C66.272 58 66.368 58.032 66.432 58.096C66.496 58.128 66.544 58.192 66.576 58.288C66.608 58.352 66.608 58.448 66.576 58.576C65.968 61.008 65.344 63.472 64.704 65.968C64.064 68.464 63.424 70.96 62.784 73.456C62.176 75.952 61.568 78.384 60.96 80.752C60.384 83.12 59.824 85.392 59.28 87.568C59.216 87.856 59.184 88.112 59.184 88.336C59.216 88.528 59.296 88.688 59.424 88.816C59.52 88.912 59.632 88.976 59.76 89.008C59.888 89.04 60.048 89.056 60.24 89.056C60.304 89.056 60.384 89.056 60.48 89.056C60.576 89.056 60.656 89.056 60.72 89.056C60.784 89.056 60.848 89.056 60.912 89.056H61.728C61.568 89.792 61.376 90.544 61.152 91.312C60.96 92.048 60.768 92.784 60.576 93.52C60.544 93.712 60.464 93.84 60.336 93.904C60.24 93.968 60.112 94 59.952 94C59.76 94 59.456 94 59.04 94C58.624 94 58.256 94 57.936 94C56.912 94 56.048 93.84 55.344 93.52C54.64 93.2 54.096 92.736 53.712 92.128C53.328 91.52 53.104 90.8 53.04 89.968C53.008 89.136 53.12 88.208 53.376 87.184C53.888 85.136 54.4 83.088 54.912 81.04C55.456 78.992 55.984 76.96 56.496 74.944C57.008 72.896 57.52 70.848 58.032 68.8C58.544 66.752 59.056 64.704 59.568 62.656C59.728 61.952 59.904 61.248 60.096 60.544C60.288 59.84 60.496 58.992 60.72 58Z" fill="#333333"/>
<path d="M-3.00001 36.848L23.592 33.296V41.6L-1.36801 44.96V45.008C0.359995 46.48 2.99999 47.152 6.55199 47.024L23.592 46.448V54.704L6.55199 55.184C4.50399 55.248 2.87199 55.232 1.65599 55.136C0.439993 55.072 -0.568007 54.864 -1.36801 54.512L-1.41601 54.56C-0.296005 56 0.951994 56.976 2.32799 57.488C3.73599 58 5.52799 58.32 7.70399 58.448L23.592 59.264L23.592 67.424L6.696 66.512C4.68 66.416 3.07999 66.256 1.89599 66.032C0.743994 65.808 -0.184006 65.488 -0.888006 65.072C-1.59201 64.656 -2.29601 64.08 -3.00001 63.344L-3.00001 36.848Z" fill="#333333"/>
<path d="M64.152 -3.00002L67.704 23.592H59.4L56.04 -1.36802H55.992C54.52 0.35998 53.848 2.99998 53.976 6.55198L54.552 23.592L46.296 23.592L45.816 6.55198C45.752 4.50398 45.768 2.87198 45.864 1.65598C45.928 0.439978 46.136 -0.568022 46.488 -1.36802L46.44 -1.41602C45 -0.296021 44.024 0.951979 43.512 2.32798C43 3.73598 42.68 5.52798 42.552 7.70398L41.736 23.592H33.576L34.488 6.69598C34.584 4.67998 34.744 3.07998 34.968 1.89598C35.192 0.743979 35.512 -0.184021 35.928 -0.888021C36.344 -1.59202 36.92 -2.29602 37.656 -3.00002L64.152 -3.00002Z" fill="#333333"/>
<path d="M103 64.152L76.408 67.704V59.4L101.368 56.04V55.992C99.64 54.52 97 53.848 93.448 53.976L76.408 54.552V46.296L93.448 45.816C95.496 45.752 97.128 45.768 98.344 45.864C99.56 45.928 100.568 46.136 101.368 46.488L101.416 46.44C100.296 45 99.048 44.024 97.672 43.512C96.264 43 94.472 42.68 92.296 42.552L76.408 41.736V33.576L93.304 34.488C95.32 34.584 96.92 34.744 98.104 34.968C99.256 35.192 100.184 35.512 100.888 35.928C101.592 36.344 102.296 36.92 103 37.656V64.152Z" fill="#333333"/>
</g>
<defs>
<clipPath id="clip0_5_46">
<rect width="100" height="100" fill="white"/>
</clipPath>
</defs>
</svg>
