<svg width="100" height="100" viewBox="0 0 100 100" fill="none" xmlns="http://www.w3.org/2000/svg">
<rect width="100" height="100" fill="#FAFAFA"/>
<path d="M86.5306 38.032L76.9546 28.96H85.7386L95.3146 38.032L85.7386 46.888H76.9546L86.5306 38.032Z" fill="#333333"/>
<path d="M47.0116 84.76L63.1396 19.816H73.0756L56.9476 84.76H47.0116Z" fill="#333333"/>
<path d="M34.4774 79.72C31.8854 79.72 29.7494 78.904 28.0694 77.272C26.3894 75.592 25.5494 73.312 25.5494 70.432C25.5494 68.8 25.9574 67.336 26.7734 66.04C27.5894 64.744 28.6694 63.712 30.0134 62.944C31.4054 62.128 32.9414 61.72 34.6214 61.72C36.1574 61.72 37.5974 62.104 38.9414 62.872C40.2854 63.592 41.3654 64.6 42.1814 65.896C42.9974 67.192 43.4054 68.704 43.4054 70.432C43.4054 71.824 43.0214 73.24 42.2534 74.68C41.4854 76.12 40.4294 77.32 39.0854 78.28C37.7894 79.24 36.2534 79.72 34.4774 79.72Z" fill="#333333"/>
<path d="M12.784 38.032L22.36 46.888H13.576L4 38.032L13.576 28.96H22.36L12.784 38.032Z" fill="#333333"/>
</svg>
